<svg id="Capa_1" data-name="Capa 1" xmlns="http://www.w3.org/2000/svg" viewBox="0 0 113 96"><defs><style>.cls-1{fill:#fefefe;}.cls-2{fill:#b8fd04;}.cls-3{fill:#020873;}.cls-4{fill:#0c0c0c;}.cls-5{fill:#22245e;}.cls-6{fill:#c2f041;}</style></defs><title>onefunnel-design</title><path class="cls-1" d="M52.44,72H-3.45c-.45,0-.55-.1-.55-.55Q-4,24-4-23.45c0-.45.1-.55.55-.55q56,0,111.9,0c.45,0,.55.1.55.55q0,47.45,0,94.9c0,.45-.1.55-.55.55ZM32.94,8.13a.64.64,0,0,0-.38-.45h0a3.66,3.66,0,0,0-.51-.46,1.55,1.55,0,0,0-1.39-.6c-.22,0-.39-.14-.62-.14l-5.45-.11L10.52,6.14c-.2,0-.42-.1-.62.08l.72.55a15.75,15.75,0,0,0,1.44,1.39c.24.21.53.39.56.75q-.07.09,0,.15h0c-.22,0,0-.32-.22-.38A7.35,7.35,0,0,1,10.69,7.4a7.32,7.32,0,0,0-.58-.67.6.6,0,0,0-.82-.26,8.94,8.94,0,0,0-1.88,1.7A4.9,4.9,0,0,0,5.9,9.27c-.91.9-2,1.55-3,2.4L1.31,13.13a.39.39,0,0,0,0,.62c.47.36.82.86,1.29,1.19,1.07.74,1.93,1.72,3,2.5C7,18.51,8.17,19.88,9.68,20.87a41.83,41.83,0,0,1,3.26,2.83,6,6,0,0,0,1.28,1,.52.52,0,0,0,.2.35,14.53,14.53,0,0,0,1.74,1.6c.42.3.75.68,1.15,1,.65.52,1.33,1,1.93,1.57s1.24.64,1.65-.2a.11.11,0,0,0,.05-.09c.64-.15,1-.69,1.44-1.09h0c.79-.53,1.55-1.12,2.34-1.66.36-.24.85-.47,1-1h0a3.84,3.84,0,0,0,1.4-1.12c.32-.35.88-.49,1-1h0a2.6,2.6,0,0,0,1.23-.85,27.83,27.83,0,0,1,2.19-1.9c1.36-1.12,2.7-2.27,4.06-3.38.78-.65,1.59-1.27,2.38-1.92A4.82,4.82,0,0,1,39.46,14c.2-.06.12-.25,0-.37l-1.37-1.1h0c-.46-.35-.8-.84-1.27-1.19-.31-.23-.73-.39-.92-.78a.82.82,0,0,0-.65-.46l0,0,0,0L35,9.81h0a5.2,5.2,0,0,0-1.35-1.17.09.09,0,0,0-.07,0A.63.63,0,0,0,32.94,8.13ZM23.09,43.2l.12-.13h0l2.27-1.81h0a42.1,42.1,0,0,0,3.6-2.92c1.21-1.07,2.46-2.08,3.69-3.11.67-.56,1.4-1.08,2-1.69s1.34-.95,1.89-1.56h0a18.58,18.58,0,0,0,2.17-1.66c.27-.2.5-.55.11-.82a26.59,26.59,0,0,1-2.86-2.43c-1.46-1.32-3-2.51-4.42-3.91-.61-.61-.73-.56-1.43.06a11.63,11.63,0,0,1-1.78,1.53,39.52,39.52,0,0,0-3.38,2.66c-1.57,1.13-3,2.51-4.43,3.79-.65.56-.93.52-1.47-.19a2.18,2.18,0,0,0-.33-.35l-2.11-1.78c-.87-.72-1.74-1.44-2.54-2.24h0c-.44-.31-.8-.72-1.23-1.06-1.14-.92-2.24-1.9-3.35-2.87a.39.39,0,0,0-.57.06,13.85,13.85,0,0,1-1.68,1.38C5.44,25.74,3.6,27.47,1.57,29c-.69.51-.66.54,0,1.12C3,31.38,4.51,32.63,5.89,34c1,1,2.19,1.9,3.29,2.84C10.45,37.93,11.7,39,13,40.08c.85.69,1.59,1.5,2.45,2.18.37.3.52.84,1.06.94h0c.87,1,2,1.71,3,2.66a.34.34,0,0,0,.48,0c.26-.3.68-.41.87-.77l.11-.12a20.61,20.61,0,0,0,2.16-1.8Zm67.2-13.61a12.43,12.43,0,0,1,1.25,1.79c.66,1,1.32,2.08,2,3.12.53.83,1.1,1.63,1.58,2.49.2.36.46.69.67,1s.66.37,1.06.35a.28.28,0,0,0,.27-.27,7.53,7.53,0,0,0,.13-1c0-3.16,0-6.31,0-9.47,0-.55-.22-.82-.72-.82s-.72.28-.72.83c0,2.33,0,4.67,0,7v.86c-.2-.37-.53-.6-.72-.91-.75-1.17-1.52-2.33-2.27-3.5s-1.47-2.26-2.15-3.41a2.63,2.63,0,0,0-.56-.75c-.33-.3-1-.18-1,.17S89,28,89,28.37c0,3.1,0,6.2,0,9.29,0,.63.18.79.79.73s.51-.47.51-.84ZM42.38,32.76V37.2c0,.8.14.94,1,.95,1.44,0,2.88.05,4.31,0a3,3,0,0,0,2.66-1.65,3.51,3.51,0,0,0,.46-1.79c0-1.51,0-3,0-4.55a3.57,3.57,0,0,0-.3-1.72,3,3,0,0,0-2.2-1.75,28.76,28.76,0,0,0-5.17-.13c-.26,0-.59.08-.58.44,0,.6-.16,1.17-.14,1.77C42.41,30.09,42.38,31.43,42.38,32.76Zm36.89-.36c.18-.93-.22-2.1.21-3.27a1.8,1.8,0,0,1,1.82-1.29c1.39-.05,2.79,0,4.19,0,.39,0,.71,0,.73-.54s-.31-.63-.71-.64c-.76,0-1.52,0-2.28,0a14.41,14.41,0,0,0-2.78.11,3.49,3.49,0,0,0-2.08,1.41,3.52,3.52,0,0,0-.39,2c0,1.69,0,3.39,0,5.09a3.1,3.1,0,0,0,2.82,3c1.63.08,3.27,0,4.91,0,.19,0,.41,0,.39-.26a8.84,8.84,0,0,1,.14-.92c0-1.68,0-3.36,0-5a.63.63,0,0,0-.71-.72h-2c-.34,0-.66.12-.69.48s.26.63.64.69a4.4,4.4,0,0,0,1,0c.34,0,.43.09.42.43q0,1.89,0,3.78c0,.32-.09.39-.39.38H81.24a1.93,1.93,0,0,1-2-1.93ZM65.78,38.26h0c.5,0,1,0,1.5,0A3.93,3.93,0,0,0,70.5,37a2.79,2.79,0,0,0-.09-3.35c-1.37-1.13-3-1.58-4.6-2.32-.42-.2-.89-.28-1.18-.75a1.75,1.75,0,0,1,1.63-2.74c1.13,0,2.27,0,3.41,0,.44,0,.74-.07.74-.59s-.38-.59-.77-.59H66.4a3.23,3.23,0,0,0-3.47,2.68A2.67,2.67,0,0,0,64,31.77c1.45.68,2.88,1.39,4.38,1.94a1.92,1.92,0,0,1,1.3,1.82,1.82,1.82,0,0,1-1.92,1.57c-.88-.07-1.76,0-2.64,0-.52,0-1,0-1.55,0a.63.63,0,0,0-.69.64c0,.38.24.56.67.54C64.3,38.24,65,38.26,65.78,38.26ZM53.4,32.76h0c0,1.58,0,3.16,0,4.74,0,.35.08.65.5.65,1.94,0,3.88,0,5.81,0,.36,0,.43-.3.6-.46s-.16-.27-.24-.42c-.17-.31-.51-.32-.83-.32-1.32,0-2.64,0-4,0-.37,0-.47-.08-.47-.45q0-4.17,0-8.34c0-.42.14-.48.51-.47h4.25c.37,0,.68-.1.75-.52s-.38-.63-.69-.64c-1.84,0-3.67,0-5.51,0-.27,0-.6.06-.6.44,0,.59-.15,1.16-.14,1.77C53.43,30.08,53.4,31.42,53.4,32.76Zm21.8-.36V30.18c0-1,0-2,0-3,0-.47-.27-.53-.66-.55s-.49.13-.53.51a30.33,30.33,0,0,0-.11,3.69c0,2.25,0,4.51,0,6.77,0,.47.18.67.68.67s.62-.38.62-.79C75.2,35.8,75.2,34.1,75.2,32.4ZM44.42,17.81h0c0,.58,0,1.16,0,1.74A1.48,1.48,0,0,0,45.29,21a3.87,3.87,0,0,0,1.78.27,2,2,0,0,0,2.13-2.09v-3a1.88,1.88,0,0,0-1.27-1.59,5.07,5.07,0,0,0-2.26,0,1.61,1.61,0,0,0-1.25,1.55ZM85,18.72c0,.47,0,.85,0,1.23A1.25,1.25,0,0,0,86,21.12a10.91,10.91,0,0,0,2.42.11c.25,0,.55,0,.56-.35s-.29-.35-.55-.35c-.62,0-1.24,0-1.86,0-.44,0-.73-.16-.7-.7s0-1.32,0-2a.64.64,0,0,1,.65-.68,5.89,5.89,0,0,1,.84,0,1,1,0,0,1,.92.9c0,.29,0,.46-.38.44a3.35,3.35,0,0,0-1.3.06c-.16.05-.42,0-.36.33s.21.31.43.31h2c.14,0,.24,0,.28-.21a1.91,1.91,0,0,0-1.46-2.5,2.31,2.31,0,0,0-2.27.64C84.9,17.66,85.09,18.25,85,18.72Zm-28.51.1a6.77,6.77,0,0,1,0,.78,1.44,1.44,0,0,0,1.6,1.63c.6,0,1.2,0,1.8,0,.24,0,.55.06.53-.36s-.29-.32-.51-.32H58.08c-.47,0-.78-.16-.74-.73a15.38,15.38,0,0,0,0-1.92.63.63,0,0,1,.5-.7,2.55,2.55,0,0,1,1.57.11c.38.19.37.61.35,1s-.36.17-.54.2-.66,0-1,0-.54-.06-.53.3.28.38.55.38h1.86c.11,0,.24,0,.31-.09a5.3,5.3,0,0,0-.23-1.93c-.3-.58-.87-.6-1.39-.71a1.76,1.76,0,0,0-2.31,1.88Zm16.77.05h0v1.8c0,.29,0,.56.4.57s.43-.29.43-.6v-2c0-1.66,0-1.66,1.65-1.52a2,2,0,0,1,.24,0,.75.75,0,0,1,.65.87c0,.86,0,1.72,0,2.58,0,.3-.07.62.41.61s.4-.32.41-.58c0-.9,0-1.8,0-2.7s-.52-1.23-1.34-1.4A13.82,13.82,0,0,0,74,16.45c-.5,0-.73.16-.71.68S73.29,18.29,73.29,18.87Zm5.76,0h0c0,.64,0,1.28,0,1.92,0,.28.06.45.39.46s.45-.14.44-.47c0-.68,0-1.36,0-2,0-1.75,0-1.75,1.77-1.57a.73.73,0,0,1,.77.83c0,.87,0,1.75,0,2.63,0,.34,0,.6.43.61s.4-.31.4-.59c0-.92,0-1.84,0-2.75a1.25,1.25,0,0,0-.93-1.26,10.28,10.28,0,0,0-2.82-.17c-.29,0-.42.24-.42.55C79.06,17.63,79.05,18.24,79.05,18.86Zm-7.33,0h0v-1a8.68,8.68,0,0,1,0-1c0-.25-.15-.3-.29-.37s-.32,0-.42.2a1,1,0,0,0-.12.56v1.92c0,.43.14,1-.07,1.27s-.82.06-1.25.1h-.3c-.63,0-.78-.15-.79-.8,0-.9,0-1.8,0-2.69a.49.49,0,0,0-.46-.57c-.28,0-.39.26-.38.56,0,1,0,1.92,0,2.87a1.16,1.16,0,0,0,.91,1.21,14.11,14.11,0,0,0,2.83.1c.29,0,.32-.23.31-.47C71.71,20.13,71.72,19.51,71.72,18.89Zm-20.95,0h0v1.86c0,.26,0,.5.36.48s.49-.13.47-.51c0-.7,0-1.4,0-2.1,0-1.52,0-1.52,1.52-1.47h.12c.64.06.88.33.88,1v2.58c0,.26,0,.52.36.55s.46-.24.46-.52c0-.94,0-1.88,0-2.82a1.84,1.84,0,0,0-1.12-1.33,13.85,13.85,0,0,0-2.49-.12c-.39,0-.57.19-.57.58C50.78,17.65,50.77,18.27,50.77,18.89ZM63,18.08h0c0-.86,0-1.72,0-2.58,0-.28,0-.42.38-.4.75,0,1.51,0,2.27,0,.18,0,.45.17.47-.23s-.13-.3-.38-.35a14.41,14.41,0,0,0-3.08-.09c-.25,0-.5.12-.49.55,0,1.9,0,3.8,0,5.7,0,.29,0,.57.41.56s.41-.3.41-.58Zm27.46-.5V19.8c0,1.08.37,1.45,1.45,1.43.25,0,.54.08.56-.34s-.27-.39-.52-.36c-.48,0-.56-.18-.56-.6,0-1.62,0-3.23,0-4.85,0-.41-.24-.63-.5-.63a.54.54,0,0,0-.46.62C90.46,15.9,90.43,16.74,90.43,17.58ZM58,31.21c-.6,0-1.19,0-1.79,0-.36,0-.45.3-.45.57s0,.45.34.5a25.54,25.54,0,0,0,3.5.11c.4,0,.77-.24.75-.6a.66.66,0,0,0-.79-.6C59,31.24,58.47,31.2,58,31.21Zm6.8-14a9.38,9.38,0,0,0-1.06,0c-.13,0-.35,0-.34.31s.16.22.31.26a6.81,6.81,0,0,0,2.16.07c.18,0,.27-.13.27-.32a.3.3,0,0,0-.32-.34Z" transform="translate(4 24)"/><path class="cls-2" d="M20.94,28.94a.11.11,0,0,1-.05.09,1.26,1.26,0,0,0-.61.16.55.55,0,0,1-.83-.13,6.72,6.72,0,0,0-1.28-1.16c-1-.9-2-1.67-3-2.53-.29-.25-.48-.61-.92-.65a6,6,0,0,1-1.28-1,41.83,41.83,0,0,0-3.26-2.83c-1.51-1-2.69-2.36-4.12-3.43-1-.78-1.9-1.76-3-2.5-.47-.33-.82-.83-1.29-1.19a.39.39,0,0,1,0-.62l1.62-1.46c.95-.85,2.06-1.5,3-2.4a4.9,4.9,0,0,1,1.51-1.1,2.29,2.29,0,0,0,1.7-1.12c.41-.47.52-.33.83,0s.33.6.75.38a7.35,7.35,0,0,0,1.74,1.29c.18.06,0,.34.22.38.12.57.71.71,1.07,1s.73.77,1.11,1.13c.63.58,1.52.88,1.9,1.73,0,.07.17.09.26.14l.11.06a.22.22,0,0,0,.24.06h0a2.13,2.13,0,0,0,.92,1.11c.61.3.85,1,1.48,1.25.15.06.27.39.46.23s.83,0,.76-.64a.74.74,0,0,0,.84-.72c.81,0,1.19-.61,1.55-1.21a.53.53,0,0,0,.71-.4.43.43,0,0,1,.44-.34.48.48,0,0,0,.45-.34,1,1,0,0,1,.76-.66,1.5,1.5,0,0,0,.72-.48,7.65,7.65,0,0,1,1.76-1.46,7.27,7.27,0,0,0,1.2-1.07,6.59,6.59,0,0,1,1.45-1.13.81.81,0,0,1,.92,0c.24.15.45.42.8.32h0c0,.22,0,.48.38.45a.61.61,0,0,0,.63.47.09.09,0,0,1,.07,0A1.59,1.59,0,0,0,35,9.8h0c-.05.19,0,.28.23.24l0,0,0,0a1.49,1.49,0,0,0,.57.89.88.88,0,0,1,.49.82c0,.17.15.29.27.21.38-.27.53.07.78.22s.41.4.73.29h0c-.11.64.47.78.82,1.08-.2.26-.51.35-.65.64a4.24,4.24,0,0,1-1.86,1.62,4.78,4.78,0,0,1-.42.26c-.46.24-.89.45-1,1a.18.18,0,0,1-.08.09c-.89.14-1.35,1-1.92,1.46s-1.9.9-2.11,2.06a.2.2,0,0,1-.12.12,7.07,7.07,0,0,0-2.12,1.72c-.17.15-.54.15-.48.52h0c-.51.13-1,.28-1.16.88,0,.15-.25.2-.32.29-.27.36-.92.37-.92,1h0a.49.49,0,0,0-.24,0,7.7,7.7,0,0,0-2.06,1.34c-.39.36-1.07.57-1.08,1.28h0C21.57,27.77,21.37,28.51,20.94,28.94Z" transform="translate(4 24)"/><path class="cls-3" d="M20.93,45l-.11.12a1,1,0,0,0-.58.06c-.24.17-.47.48-.76.18s-.58-.21-.7-.49c-.3-.72-1.12-.86-1.53-1.44a.76.76,0,0,0-.75-.23h0a.65.65,0,0,0-.31-.67c-.78-.57-1.27-1.43-2.05-2-.6-.45-1.37-.82-1.7-1.6,0,0-.07,0-.1,0A16,16,0,0,1,9.7,36.71c-.63-.55-1.44-.92-1.85-1.71,0,0-.16,0-.21-.1-.45-.45-1.06-.7-1.45-1.24-.25-.34-.21-1.08-1-.82a.11.11,0,0,1-.1-.05C4.85,32.17,4,32,4,31.14c0-.2-.07-.25-.35-.25-.51,0-1.18,0-1.21-.83,0-.24-.22-.07-.33-.1a.67.67,0,0,1-.46-.34c0-.1,0-.24.09-.25.56-.07.68-.68,1.13-.89A1.88,1.88,0,0,0,4,27.39a.49.49,0,0,1,.31-.25c.61-.09,1-.6,1.39-.93a10.09,10.09,0,0,1,2-1.6A1.28,1.28,0,0,0,8.37,24a3.84,3.84,0,0,1,.9-.9.23.23,0,0,1,.33,0,2.15,2.15,0,0,0,1.25.9.15.15,0,0,1,.1.24c-.14.15,0,.2.06.31.34.34.82.47,1.16.85s1,.41,1,1.11c0,.07,0,.17.15.14.31-.08.62.13.93,0h0c.15.5.2,1.08.89,1.17.05,0,.13.07.13.11,0,.63.58.68,1,.84a1,1,0,0,1,.5.44c.31.48,1.05.61,1.08,1.31,0,0,.08.11.13.12.44,0,.64.35.94.61a15.19,15.19,0,0,0,2,1.28c0-.31.1-.56,0-.77s0-.4.25-.45.3.05.33-.05c.23-.66,1-.74,1.34-1.33a2.16,2.16,0,0,1,.76-.69A3.33,3.33,0,0,0,25,28a1,1,0,0,1,1.62-.2c-.24-.79.24-1.11.78-1.36.23-.11.41-.26.32-.47-.16-.4.09-.38.28-.3.41.19.55,0,.62-.35s.17-.5.42-.52c.51,0,.64-.43.85-.74s.72-.45,1.07-.69c.11-.08.23,0,.27.16s.1.28.25.31c.81.14,1,1,1.79,1.31.39.13.56.63,1,.86s.47.68.93.87.75,1,1.44,1c0,0,.1.08.11.13.06.46.47.59.76.85s.54.26.69.54a.91.91,0,0,1-.06,1.07c-.25.3-.48.7-1,.53-.1,0-.32,0-.27.09.14.35-.24.58-.16.9h0c-.42-.2-.73-.2-.92.33a.74.74,0,0,1-.82.49c-.41-.18-.44,0-.45.26s-.07.59-.49.54a.26.26,0,0,0-.2.1c-.16.58-.72.72-1.14.94s-.57.91-1.16,1.13c-.31.11-.56.54-.93.72s-.62.21-.54.65c0,.19-.09.28-.29.29s-.3,0-.41.17a2.19,2.19,0,0,1-1,.79c-.29.16-.64.24-.57.7,0,.16-.09.26-.25.25a.63.63,0,0,0-.58.32c-.2.26-.49.58-.77.6-.72.06-.69.51-.67,1h0c-.77-.08-1.15.56-1.69.91-.3.2-.74.37-.58.9h0l-.12.13h0a.88.88,0,0,0-.84.31,3.1,3.1,0,0,1-.95.78A.61.61,0,0,0,20.93,45Z" transform="translate(4 24)"/><path class="cls-3" d="M12.62,8.91c0-.36-.32-.54-.56-.75a15.75,15.75,0,0,1-1.44-1.39c0-.37.32-.29.55-.29.89,0,1.79,0,2.68,0,2.83,0,5.66-.1,8.47.17,2.39.24,4.78-.1,7.17.19.56.06.78,0,.55.6h0c-.49-.14-.73.25-1,.5s-.59.12-.77.38a9.8,9.8,0,0,1-2.52,2.33A13.91,13.91,0,0,1,23.94,12a12.76,12.76,0,0,0-1.19,1.06c-.72.54-1.46,1.08-2.16,1.67-.12.1-.15.49-.49.2s-.54-.2-.58-.46c-.14-.76-.67-.8-1.26-.77-.35-.12-.51-.48-.81-.67-.09-.21-.29-.25-.47-.32h0l-.13-.15a2.44,2.44,0,0,0-.36-.47c-1.07-.85-2.05-1.81-3.05-2.75A1.1,1.1,0,0,0,12.78,9C12.75,8.89,12.7,8.87,12.62,8.91Z" transform="translate(4 24)"/><path class="cls-4" d="M90.29,29.59v8c0,.37,0,.79-.51.84s-.79-.1-.79-.73c0-3.09,0-6.19,0-9.29,0-.42.09-.85.11-1.29s.67-.47,1-.17a2.63,2.63,0,0,1,.56.75c.68,1.15,1.43,2.28,2.15,3.41s1.52,2.33,2.27,3.5c.19.31.52.54.72.91v-.86c0-2.34,0-4.68,0-7,0-.55.21-.83.72-.83s.72.27.72.82c0,3.16,0,6.31,0,9.47a7.53,7.53,0,0,1-.13,1,.28.28,0,0,1-.27.27c-.4,0-.83,0-1.06-.35s-.47-.69-.67-1c-.48-.86-1-1.66-1.58-2.49-.67-1-1.33-2.08-2-3.12A12.43,12.43,0,0,0,90.29,29.59Z" transform="translate(4 24)"/><path class="cls-4" d="M42.38,32.76c0-1.33,0-2.67,0-4,0-.6.15-1.17.14-1.77,0-.36.32-.44.58-.44a28.76,28.76,0,0,1,5.17.13,3,3,0,0,1,2.2,1.75,3.57,3.57,0,0,1,.3,1.72c0,1.52,0,3,0,4.55a3.51,3.51,0,0,1-.46,1.79,3,3,0,0,1-2.66,1.65c-1.43.07-2.87,0-4.31,0-.82,0-1-.15-1-.95Zm1.43.36c0,1.12,0,2.24,0,3.35,0,.44.12.52.52.5,1.07,0,2.15,0,3.23,0a1.89,1.89,0,0,0,1.78-1.82V29.57a1.9,1.9,0,0,0-1.73-1.85c-1.12,0-2.24,0-3.35,0-.21,0-.35,0-.32.28.09.74-.15,1.46-.13,2.19C43.83,31.16,43.81,32.14,43.81,33.12Z" transform="translate(4 24)"/><path class="cls-4" d="M79.27,32.4v2.75a1.93,1.93,0,0,0,2,1.93h3.17c.3,0,.4-.06.39-.38q0-1.89,0-3.78c0-.34-.08-.46-.42-.43a4.4,4.4,0,0,1-1,0c-.38-.06-.68-.28-.64-.69s.35-.48.69-.48h2a.63.63,0,0,1,.71.72c0,1.68,0,3.36,0,5a8.84,8.84,0,0,0-.14.92c0,.23-.2.26-.39.26-1.64,0-3.28.06-4.91,0a3.1,3.1,0,0,1-2.82-3c0-1.7,0-3.4,0-5.09a3.52,3.52,0,0,1,.39-2,3.49,3.49,0,0,1,2.08-1.41,14.41,14.41,0,0,1,2.78-.11c.76,0,1.52,0,2.28,0,.4,0,.74.11.71.64s-.34.54-.73.54c-1.4,0-2.8,0-4.19,0a1.8,1.8,0,0,0-1.82,1.29C79.05,30.3,79.45,31.47,79.27,32.4Z" transform="translate(4 24)"/><path class="cls-4" d="M65.78,38.26c-.74,0-1.48,0-2.21,0-.43,0-.68-.16-.67-.54a.63.63,0,0,1,.69-.64c.52,0,1,0,1.55,0,.88,0,1.76,0,2.64,0a1.82,1.82,0,0,0,1.92-1.57,1.92,1.92,0,0,0-1.3-1.82c-1.5-.55-2.93-1.26-4.38-1.94a2.67,2.67,0,0,1-1.09-2.44,3.23,3.23,0,0,1,3.47-2.68h3.24c.39,0,.76,0,.77.59s-.3.6-.74.59c-1.14,0-2.28,0-3.41,0a1.75,1.75,0,0,0-1.63,2.74c.29.47.76.55,1.18.75,1.55.74,3.23,1.19,4.6,2.32A2.79,2.79,0,0,1,70.5,37a3.93,3.93,0,0,1-3.22,1.28c-.5,0-1,0-1.5,0Z" transform="translate(4 24)"/><path class="cls-4" d="M53.4,32.76c0-1.34,0-2.68,0-4,0-.61.16-1.18.14-1.77,0-.38.33-.44.6-.44,1.84,0,3.67,0,5.51,0,.31,0,.78.09.69.64s-.38.52-.75.52H55.33c-.37,0-.51.05-.51.47q0,4.17,0,8.34c0,.37.1.46.47.45,1.31,0,2.63,0,4,0,.32,0,.66,0,.83.32.08.15.45.23.24.42s-.24.46-.6.46c-1.93,0-3.87,0-5.81,0-.42,0-.5-.3-.5-.65,0-1.58,0-3.16,0-4.74Z" transform="translate(4 24)"/><path class="cls-5" d="M14.22,26.64c-.31.16-.62-.05-.93,0-.11,0-.15-.07-.15-.14,0-.7-.64-.75-1-1.11s-.82-.51-1.16-.85c-.11-.11-.2-.16-.06-.31a.15.15,0,0,0-.1-.24,2.15,2.15,0,0,1-1.25-.9.23.23,0,0,0-.33,0,3.84,3.84,0,0,0-.9.9,1.28,1.28,0,0,1-.64.62,10.09,10.09,0,0,0-2,1.6c-.42.33-.78.84-1.39.93a.49.49,0,0,0-.31.25,1.88,1.88,0,0,1-1.12,1.09c-.45.21-.57.82-1.13.89-.08,0-.14.15-.09.25a.67.67,0,0,0,.46.34c.11,0,.32-.14.33.1,0,.82.7.82,1.21.83.28,0,.35.05.35.25,0,.81.83,1,1.08,1.65a.11.11,0,0,0,.1.05c.78-.26.74.48,1,.82.39.54,1,.79,1.45,1.24.05.06.19.05.21.1.41.79,1.22,1.16,1.85,1.71a16,16,0,0,0,2.64,2.14s.09,0,.1,0c.33.78,1.1,1.15,1.7,1.6.78.6,1.27,1.46,2.05,2a.65.65,0,0,1,.31.67c-.54-.1-.69-.64-1.06-.94-.86-.68-1.6-1.49-2.45-2.18-1.29-1-2.54-2.15-3.81-3.22C8.08,35.92,6.91,35,5.89,34,4.51,32.63,3,31.38,1.56,30.09c-.65-.58-.68-.61,0-1.12,2-1.5,3.87-3.23,5.82-4.82a13.85,13.85,0,0,0,1.68-1.38.39.39,0,0,1,.57-.06c1.11,1,2.21,1.95,3.35,2.87C13.42,25.92,13.78,26.33,14.22,26.64Z" transform="translate(4 24)"/><path class="cls-5" d="M36.69,32c-.08-.32.3-.55.16-.9-.05-.14.17-.12.27-.09.52.17.75-.23,1-.53a.91.91,0,0,0,.06-1.07c-.15-.28-.47-.35-.69-.54s-.7-.39-.76-.85c0-.05-.07-.13-.11-.13-.69-.06-.89-.81-1.44-1s-.61-.7-.93-.87-.61-.73-1-.86c-.75-.27-1-1.17-1.79-1.31-.15,0-.2-.17-.25-.31s-.16-.24-.27-.16c-.35.24-.8.28-1.07.69s-.34.72-.85.74c-.25,0-.38.27-.42.52s-.21.54-.62.35c-.19-.08-.44-.1-.28.3.09.21-.09.36-.32.47-.54.25-1,.57-.78,1.36A1,1,0,0,0,25,28a3.33,3.33,0,0,1-1.44,1.27,2.16,2.16,0,0,0-.76.69c-.34.59-1.11.67-1.34,1.33,0,.1-.23,0-.33.05s-.49.1-.25.45.05.46,0,.77a15.19,15.19,0,0,1-2-1.28c-.3-.26-.5-.58-.94-.61-.05,0-.13-.08-.13-.12,0-.7-.77-.83-1.08-1.31a1,1,0,0,0-.5-.44c-.41-.16-1-.21-1-.84,0,0-.08-.1-.13-.11-.69-.09-.74-.67-.89-1.17.8.8,1.67,1.52,2.54,2.24l2.11,1.78a2.18,2.18,0,0,1,.33.35c.54.71.82.75,1.47.19,1.47-1.28,2.86-2.66,4.43-3.79a39.52,39.52,0,0,1,3.38-2.66,11.63,11.63,0,0,0,1.78-1.53c.7-.62.82-.67,1.43-.06,1.4,1.4,3,2.59,4.42,3.91A26.59,26.59,0,0,0,39,29.5c.39.27.16.62-.11.82A18.58,18.58,0,0,1,36.69,32Z" transform="translate(4 24)"/><path class="cls-4" d="M75.2,32.4c0,1.7,0,3.4,0,5.09,0,.41,0,.79-.62.79s-.68-.2-.68-.67c0-2.26,0-4.52,0-6.77A30.33,30.33,0,0,1,74,27.15c0-.38.14-.52.53-.51s.67.08.66.55c0,1,0,2,0,3Z" transform="translate(4 24)"/><path class="cls-4" d="M44.42,17.81V16.08a1.61,1.61,0,0,1,1.25-1.55,5.07,5.07,0,0,1,2.26,0,1.88,1.88,0,0,1,1.27,1.59v3a2,2,0,0,1-2.13,2.09A3.87,3.87,0,0,1,45.29,21a1.48,1.48,0,0,1-.87-1.41c0-.58,0-1.16,0-1.74Zm4,0h0c0-.56,0-1.12,0-1.68a.58.58,0,0,0-.15-.46c-.63-.72-1.38-.59-2.18-.48a.8.8,0,0,0-.79.89c0,1.16,0,2.32,0,3.48a.85.85,0,0,0,.64.86,3.7,3.7,0,0,0,1.28.09,1.11,1.11,0,0,0,1.22-1.2C48.37,18.82,48.38,18.32,48.38,17.82Z" transform="translate(4 24)"/><path class="cls-4" d="M85,18.72c.06-.47-.13-1.06.22-1.59a2.31,2.31,0,0,1,2.27-.64A1.91,1.91,0,0,1,89,19c0,.2-.14.21-.28.21h-2c-.22,0-.38-.05-.43-.31s.2-.28.36-.33a3.35,3.35,0,0,1,1.3-.06c.39,0,.41-.15.38-.44a1,1,0,0,0-.92-.9,5.89,5.89,0,0,0-.84,0,.64.64,0,0,0-.65.68c0,.66,0,1.32,0,2s.26.69.7.7c.62,0,1.24,0,1.86,0,.26,0,.55,0,.55.35s-.31.37-.56.35A10.91,10.91,0,0,1,86,21.12,1.25,1.25,0,0,1,85,20C85,19.57,85,19.19,85,18.72Z" transform="translate(4 24)"/><path class="cls-4" d="M56.52,18.82v-.48a1.76,1.76,0,0,1,2.31-1.88c.52.11,1.09.13,1.39.71a5.3,5.3,0,0,1,.23,1.93c-.07.13-.2.09-.31.09H58.28c-.27,0-.54,0-.55-.38s.36-.25.53-.3.64,0,1,0,.52.24.54-.2,0-.79-.35-1a2.55,2.55,0,0,0-1.57-.11.63.63,0,0,0-.5.7,15.38,15.38,0,0,1,0,1.92c0,.57.27.72.74.73h1.86c.22,0,.5-.06.51.32s-.29.36-.53.36c-.6,0-1.2,0-1.8,0a1.44,1.44,0,0,1-1.6-1.63A6.77,6.77,0,0,0,56.52,18.82Z" transform="translate(4 24)"/><path class="cls-4" d="M73.29,18.87c0-.58,0-1.16,0-1.74s.21-.71.71-.68a13.82,13.82,0,0,1,2.13.11c.82.17,1.31.59,1.34,1.4s0,1.8,0,2.7c0,.26,0,.56-.41.58s-.41-.31-.41-.61c0-.86,0-1.72,0-2.58a.75.75,0,0,0-.65-.87,2,2,0,0,0-.24,0c-1.65-.14-1.65-.14-1.65,1.52v2c0,.31,0,.61-.43.6s-.4-.28-.4-.57v-1.8Z" transform="translate(4 24)"/><path class="cls-4" d="M79.05,18.86c0-.62,0-1.23,0-1.85,0-.31.13-.55.42-.55a10.28,10.28,0,0,1,2.82.17,1.25,1.25,0,0,1,.93,1.26c.06.91,0,1.83,0,2.75,0,.28,0,.59-.4.59s-.44-.27-.43-.61c0-.88,0-1.76,0-2.63a.73.73,0,0,0-.77-.83c-1.77-.18-1.77-.18-1.77,1.57,0,.68,0,1.36,0,2,0,.33-.1.47-.44.47s-.39-.18-.39-.46c0-.64,0-1.28,0-1.92Z" transform="translate(4 24)"/><path class="cls-4" d="M71.72,18.89c0,.62,0,1.24,0,1.86,0,.24,0,.48-.31.47a14.11,14.11,0,0,1-2.83-.1,1.16,1.16,0,0,1-.91-1.21c0-.95,0-1.91,0-2.87,0-.3.1-.57.38-.56a.49.49,0,0,1,.46.57c0,.89,0,1.79,0,2.69,0,.65.16.8.79.8h.3c.43,0,1,.19,1.25-.1s.06-.84.07-1.27V17.24a1,1,0,0,1,.12-.56c.1-.18.23-.3.42-.2s.32.12.29.37a8.68,8.68,0,0,0,0,1v1Z" transform="translate(4 24)"/><path class="cls-4" d="M50.77,18.89c0-.62,0-1.24,0-1.86,0-.39.18-.58.57-.58a13.85,13.85,0,0,1,2.49.12A1.84,1.84,0,0,1,55,17.9c0,.94,0,1.88,0,2.82,0,.28,0,.54-.46.52s-.36-.29-.36-.55V18.11c0-.63-.24-.9-.88-1h-.12c-1.52,0-1.52,0-1.52,1.47,0,.7,0,1.4,0,2.1,0,.38-.15.49-.47.51s-.37-.22-.36-.48V18.89Z" transform="translate(4 24)"/><path class="cls-4" d="M63,18.08v2.58c0,.28,0,.56-.41.58s-.41-.27-.41-.56c0-1.9,0-3.8,0-5.7,0-.43.24-.55.49-.55a14.41,14.41,0,0,1,3.08.09c.25.05.4,0,.38.35s-.29.23-.47.23c-.76,0-1.52,0-2.27,0-.36,0-.38.12-.38.4,0,.86,0,1.72,0,2.58Z" transform="translate(4 24)"/><path class="cls-4" d="M90.43,17.58c0-.84,0-1.68,0-2.51a.54.54,0,0,1,.46-.62c.26,0,.51.22.5.63,0,1.62,0,3.23,0,4.85,0,.42.08.65.56.6.25,0,.53-.05.52.36s-.31.34-.56.34c-1.08,0-1.45-.35-1.45-1.43Z" transform="translate(4 24)"/><path class="cls-5" d="M30,7.44c.23-.6,0-.54-.55-.6-2.39-.29-4.78,0-7.17-.19-2.81-.27-5.64-.14-8.47-.17-.89,0-1.79,0-2.68,0-.23,0-.51-.08-.55.29L9.9,6.22c.2-.18.42-.08.62-.08l14.07.23L30,6.48c.23,0,.4.13.62.14C30.7,7.08,30.32,7.22,30,7.44Z" transform="translate(4 24)"/><path class="cls-6" d="M28.16,23.08c-.06-.37.31-.37.48-.52a7.07,7.07,0,0,1,2.12-1.72.2.2,0,0,0,.12-.12c.21-1.16,1.39-1.43,2.11-2.06s1-1.32,1.92-1.46a.18.18,0,0,0,.08-.09c.07-.58.5-.79,1-1a4.78,4.78,0,0,0,.42-.26,4.24,4.24,0,0,0,1.86-1.62c.14-.29.45-.38.65-.64-.35-.3-.93-.44-.82-1.08l1.37,1.1c.15.12.23.31,0,.37A4.82,4.82,0,0,0,38,15c-.79.65-1.6,1.27-2.38,1.92-1.36,1.11-2.7,2.26-4.06,3.38a27.83,27.83,0,0,0-2.19,1.9A2.6,2.6,0,0,1,28.16,23.08Z" transform="translate(4 24)"/><path class="cls-5" d="M25.48,41.27c0-.49-.05-.94.67-1,.28,0,.57-.34.77-.6a.63.63,0,0,1,.58-.32c.16,0,.28-.09.25-.25-.07-.46.28-.54.57-.7a2.19,2.19,0,0,0,1-.79c.11-.2.26-.16.41-.17s.32-.1.29-.29c-.08-.44.27-.52.54-.65s.62-.61.93-.72c.59-.22.65-.86,1.16-1.13s1-.36,1.14-.94a.26.26,0,0,1,.2-.1c.42,0,.48-.19.49-.54s0-.44.45-.26a.74.74,0,0,0,.82-.49c.19-.53.5-.53.92-.33-.55.61-1.31,1-1.89,1.56s-1.35,1.13-2,1.69c-1.23,1-2.48,2-3.69,3.11A42.1,42.1,0,0,1,25.48,41.27Z" transform="translate(4 24)"/><path class="cls-4" d="M58,31.2c.52,0,1,0,1.56,0a.66.66,0,0,1,.79.6c0,.36-.35.6-.75.6a25.54,25.54,0,0,1-3.5-.11c-.35-.05-.35-.3-.34-.5s.09-.57.45-.57Z" transform="translate(4 24)"/><path class="cls-6" d="M30,7.44c.28-.22.66-.36.62-.82a1.55,1.55,0,0,1,1.39.6,3.66,3.66,0,0,1,.51.46c-.35.1-.56-.17-.8-.32a.81.81,0,0,0-.92,0,6.59,6.59,0,0,0-1.45,1.13,7.27,7.27,0,0,1-1.2,1.07A7.65,7.65,0,0,0,26.43,11a1.5,1.5,0,0,1-.72.48,1,1,0,0,0-.76.66.48.48,0,0,1-.45.34.43.43,0,0,0-.44.34.53.53,0,0,1-.71.4l-.09-.08L24.61,12,30,7.45Z" transform="translate(4 24)"/><path class="cls-6" d="M14.22,24.72c.44,0,.63.4.92.65,1,.86,2.08,1.63,3,2.53a6.72,6.72,0,0,1,1.28,1.16.55.55,0,0,0,.83.13,1.26,1.26,0,0,1,.61-.16c-.41.84-.94.87-1.65.2S18,28.18,17.31,27.66c-.4-.31-.73-.69-1.15-1a14.53,14.53,0,0,1-1.74-1.6A.52.52,0,0,1,14.22,24.72Z" transform="translate(4 24)"/><path class="cls-6" d="M12.78,9a1.1,1.1,0,0,1,.67.37c1,.94,2,1.9,3.05,2.75a2.44,2.44,0,0,1,.36.47c-.09,0-.09.06-.05.08a.48.48,0,0,0,.18.07h0v.37c-.09-.05-.23-.07-.26-.14-.38-.85-1.27-1.15-1.9-1.73-.38-.36-.69-.79-1.11-1.13s-1-.44-1.07-1h0Z" transform="translate(4 24)"/><path class="cls-5" d="M16.5,43.2a.76.76,0,0,1,.75.23c.41.58,1.23.72,1.53,1.44.12.28.49.26.7.49s.52,0,.76-.18a1,1,0,0,1,.58-.06c-.19.36-.61.47-.87.77a.34.34,0,0,1-.48,0C18.53,44.91,17.37,44.21,16.5,43.2Z" transform="translate(4 24)"/><path class="cls-4" d="M64.75,17.18h1a.3.3,0,0,1,.32.34c0,.19-.09.32-.27.32a6.81,6.81,0,0,1-2.16-.07c-.15,0-.3,0-.31-.26s.21-.3.34-.31A9.38,9.38,0,0,1,64.75,17.18Z" transform="translate(4 24)"/><path class="cls-6" d="M22.38,27.85c0-.71.69-.92,1.08-1.28a7.7,7.7,0,0,1,2.06-1.34.49.49,0,0,1,.24,0c-.19.48-.68.71-1,1C23.93,26.73,23.17,27.32,22.38,27.85Z" transform="translate(4 24)"/><path class="cls-6" d="M38.06,12.48c-.32.11-.51-.16-.73-.29s-.4-.49-.78-.22c-.12.08-.28,0-.27-.21a.88.88,0,0,0-.49-.82,1.49,1.49,0,0,1-.57-.89.82.82,0,0,1,.65.46c.19.39.61.55.92.78C37.26,11.64,37.6,12.13,38.06,12.48Z" transform="translate(4 24)"/><path class="cls-6" d="M10.69,7.4c-.42.22-.55-.19-.75-.38s-.42-.44-.83,0a2.29,2.29,0,0,1-1.7,1.12,8.94,8.94,0,0,1,1.88-1.7.6.6,0,0,1,.82.26A7.32,7.32,0,0,1,10.69,7.4Z" transform="translate(4 24)"/><path class="cls-6" d="M25.76,25.23c0-.61.65-.62.92-1,.07-.09.28-.14.32-.29.16-.6.65-.75,1.16-.88-.12.54-.68.68-1,1A3.84,3.84,0,0,1,25.76,25.23Z" transform="translate(4 24)"/><path class="cls-5" d="M23.21,43.08c-.16-.53.28-.7.58-.9.54-.35.92-1,1.69-.91Z" transform="translate(4 24)"/><path class="cls-5" d="M20.93,45a.61.61,0,0,1,.37-.71,3.1,3.1,0,0,0,.95-.78.88.88,0,0,1,.84-.31A20.61,20.61,0,0,1,20.93,45Z" transform="translate(4 24)"/><path class="cls-6" d="M35,9.8a1.59,1.59,0,0,1-1.35-1.17A5.2,5.2,0,0,1,35,9.8Z" transform="translate(4 24)"/><path class="cls-6" d="M20.94,28.94c.43-.43.63-1.17,1.44-1.09C21.93,28.25,21.58,28.79,20.94,28.94Z" transform="translate(4 24)"/><path class="cls-6" d="M33.57,8.6a.61.61,0,0,1-.63-.47A.63.63,0,0,1,33.57,8.6Z" transform="translate(4 24)"/><path class="cls-6" d="M32.94,8.13c-.33,0-.34-.23-.38-.45A.64.64,0,0,1,32.94,8.13Z" transform="translate(4 24)"/><path class="cls-6" d="M35.22,10.05c-.21,0-.28-.05-.23-.24Z" transform="translate(4 24)"/><path class="cls-2" d="M12.78,9l-.13.08q-.11-.06,0-.15C12.7,8.87,12.75,8.89,12.78,9Z" transform="translate(4 24)"/><path class="cls-5" d="M23.09,43.2l.12-.13Z" transform="translate(4 24)"/><path class="cls-6" d="M17.45,13c.3.19.46.55.81.67.39.53,1,.87,1.39,1.35s.83.44,1.26,0l.05.05c.07.59-.52.42-.76.64s-.31-.17-.46-.23c-.63-.26-.87-1-1.48-1.25a2.13,2.13,0,0,1-.92-1.11A.16.16,0,0,0,17.45,13Z" transform="translate(4 24)"/><path class="cls-6" d="M23.35,13.22c-.36.6-.74,1.18-1.55,1.21l0,0a10.58,10.58,0,0,1,1.5-1.25Z" transform="translate(4 24)"/><path class="cls-6" d="M21.8,14.43a.74.74,0,0,1-.84.72l-.05-.05.85-.71Z" transform="translate(4 24)"/><path class="cls-1" d="M17.45,13a.16.16,0,0,1-.11.17h0c-.06-.11-.15-.1-.24-.06L17,13.08v-.37C17.16,12.78,17.36,12.82,17.45,13Z" transform="translate(4 24)"/><path class="cls-6" d="M17.1,13.14c.09,0,.18-.05.24.06A.22.22,0,0,1,17.1,13.14Z" transform="translate(4 24)"/><path class="cls-5" d="M21.76,14.39l-.85.71c-.43.39-.81.48-1.26,0s-1-.82-1.39-1.35c.59,0,1.12,0,1.26.77,0,.26.39.3.58.46s.37-.1.49-.2c.7-.59,1.44-1.13,2.16-1.67A12.76,12.76,0,0,1,23.94,12a13.91,13.91,0,0,0,1.79-1.34,9.8,9.8,0,0,0,2.52-2.33c.18-.26.53-.18.77-.38s.52-.64,1-.5L24.61,12l-1.35,1.13A10.58,10.58,0,0,0,21.76,14.39Z" transform="translate(4 24)"/><path class="cls-1" d="M17,12.72a.48.48,0,0,1-.18-.07s0-.09.05-.08Z" transform="translate(4 24)"/><path class="cls-1" d="M43.81,33.12c0-1,0-2,0-2.94,0-.73.22-1.45.13-2.19,0-.26.11-.28.32-.28,1.11,0,2.23,0,3.35,0a1.9,1.9,0,0,1,1.73,1.85v5.57A1.89,1.89,0,0,1,47.55,37c-1.08,0-2.16,0-3.23,0-.4,0-.54-.06-.52-.5C43.83,35.36,43.81,34.24,43.81,33.12Z" transform="translate(4 24)"/><path class="cls-1" d="M48.38,17.82c0,.5,0,1,0,1.5a1.11,1.11,0,0,1-1.22,1.2,3.7,3.7,0,0,1-1.28-.09.85.85,0,0,1-.64-.86c0-1.16,0-2.32,0-3.48A.8.8,0,0,1,46,15.2c.8-.11,1.55-.24,2.18.48a.58.58,0,0,1,.15.46c0,.56,0,1.12,0,1.68Z" transform="translate(4 24)"/></svg>